<svg xmlns="http://www.w3.org/2000/svg" viewBox="0 0 48 48" fill="none">
  <defs>
    <linearGradient id="brand" x1="4" y1="4" x2="44" y2="44" gradientUnits="userSpaceOnUse">
      <stop stop-color="#9E82FF"/>
      <stop offset="1" stop-color="#51418D"/>
    </linearGradient>
  </defs>
  <rect x="1" y="1" width="46" height="46" rx="14" fill="url(#brand)"/>
  <rect x="1" y="1" width="46" height="46" rx="14" stroke="#C8B6FF" stroke-opacity=".45"/>
  <g stroke="#F1EBFF" stroke-linecap="round" stroke-linejoin="round" stroke-width="2.6">
    <path d="M24 15v24"/>
    <path d="M32 23h4"/>
    <path d="M32 17h4"/>
    <path d="M6 34a2 2 0 0 1-2-2V10a2 2 0 0 1 2-2h10a8 8 0 0 1 8 8 8 8 0 0 1 8-8h10a2 2 0 0 1 2 2v22a2 2 0 0 1-2 2h-12a6 6 0 0 0-6 6 6 6 0 0 0-6-6z"/>
    <path d="M10 17h4"/>
    <path d="M10 23h4"/>
  </g>
</svg>
